# 3ds Max Wavefront OBJ Exporter v0.97b - (c)2007 guruware
# File Created: 12.11.2020 18:20:44

mtllib L_tetris_piece.mtl

#
# object Box001
#

v  0.0000 0.0000 -0.0000
v  0.0000 0.0000 -1.0000
v  1.0000 0.0000 -1.0000
v  1.0000 0.0000 -0.0000
v  0.0000 4.0000 -0.0000
v  1.0000 4.0000 -0.0000
v  1.0000 4.0000 -1.0000
v  0.0000 4.0000 -1.0000
v  1.0000 1.0000 -0.0000
v  0.0000 1.0000 -0.0000
v  1.0000 1.0000 -1.0000
v  0.0000 1.0000 -1.0000
v  2.0000 1.0000 -0.0000
v  2.0000 0.0000 -0.0000
v  2.0000 0.0000 -1.0000
v  2.0000 1.0000 -1.0000
# 16 vertices

vn -0.5774 -0.5774 0.5774
vn -0.5774 -0.5774 -0.5774
vn 0.0000 -0.7071 -0.7071
vn 0.0000 -0.7071 0.7071
vn -0.5774 0.5774 0.5774
vn 0.5774 0.5774 0.5774
vn 0.5774 0.5774 -0.5774
vn -0.5774 0.5774 -0.5774
vn 0.3015 0.3015 0.9045
vn -0.7071 0.0000 0.7071
vn 0.3015 0.3015 -0.9045
vn -0.7071 0.0000 -0.7071
vn 0.5774 -0.5774 0.5774
vn 0.5774 -0.5774 -0.5774
# 14 vertex normals

vt 1.0000 0.0000 0.0000
vt 1.0000 1.0000 0.0000
vt 0.0000 1.0000 0.0000
vt 0.0000 0.0000 0.0000
vt 1.0000 0.2508 0.0000
vt 0.0000 0.2487 0.0000
vt 1.0000 0.2552 0.0000
vt 0.0000 0.2508 0.0000
vt 1.0000 0.2757 0.0000
vt 0.0000 0.2552 0.0000
vt 1.0000 0.2487 0.0000
vt 0.0000 0.2757 0.0000
# 12 texture coords

o Box001
g Box001
usemtl wire_141007058
s 2
f 1/1/1 2/2/2 3/3/3 4/4/4 
s 4
f 5/4/5 6/1/6 7/2/7 8/3/8 
s 8
f 1/4/1 4/1/4 9/5/9 10/6/10 
s 16
f 11/7/11 7/2/7 6/3/6 9/8/9 
s 32
f 12/9/12 8/2/8 7/3/7 11/10/11 
s 64
f 2/4/2 1/1/1 10/11/10 12/12/12 
s 16
f 13/8/6 14/4/13 15/1/14 16/7/7 
s off
f 4/4/4 3/1/3 15/1/14 14/4/13 
f 3/1/3 11/7/11 16/7/7 15/1/14 
f 11/7/11 9/8/9 13/8/6 16/7/7 
f 9/8/9 4/4/4 14/4/13 13/8/6 
s 8
f 9/5/9 6/2/6 5/3/5 10/6/10 
s 64
f 10/11/10 5/2/5 8/3/8 12/12/12 
s 32
f 11/10/11 3/4/3 2/1/2 12/9/12 
# 14 polygons

