# 3ds Max Wavefront OBJ Exporter v0.97b - (c)2007 guruware
# File Created: 20.11.2020 11:37:29

mtllib L_tetris_piece.mtl

#
# object Box001
#

v  0.0000 0.0000 -0.0000
v  0.0000 0.0000 -1.0000
v  1.0000 0.0000 -1.0000
v  1.0000 0.0000 -0.0000
v  0.0000 3.0000 -0.0000
v  1.0000 3.0000 -0.0000
v  1.0000 3.0000 -1.0000
v  0.0000 3.0000 -1.0000
v  1.0000 1.0000 -0.0000
v  0.0000 1.0000 -0.0000
v  2.0000 0.0000 -0.0000
v  2.0000 0.0000 -1.0000
v  2.0000 1.0000 -1.0000
v  2.0000 1.0000 -0.0000
v  0.0000 1.0000 -1.0000
v  1.0000 1.0000 -1.0000
# 16 vertices

vn -0.5774 -0.5774 0.5774
vn -0.5774 -0.5774 -0.5774
vn 0.0000 -0.7071 -0.7071
vn 0.0000 -0.7071 0.7071
vn -0.5774 0.5774 0.5774
vn 0.5774 0.5774 0.5774
vn 0.5774 0.5774 -0.5774
vn -0.5774 0.5774 -0.5774
vn 0.3015 0.3015 0.9045
vn -0.7071 0.0000 0.7071
vn 0.5774 -0.5774 0.5774
vn 0.5774 -0.5774 -0.5774
vn -0.7071 -0.0000 -0.7071
vn 0.3015 0.3015 -0.9045
# 14 vertex normals

vt 1.0000 0.0000 0.0000
vt 1.0000 1.0000 0.0000
vt 0.0000 1.0000 0.0000
vt 0.0000 0.0000 0.0000
# 4 texture coords

o Box001
g Box001
usemtl wire_006135113
s 2
f 1/1/1 2/2/2 3/3/3 4/4/4 
s 4
f 5/4/5 6/1/6 7/2/7 8/3/8 
s 8
f 1/4/1 4/1/4 9/2/9 10/3/10 
s 16
f 11/4/11 12/1/12 13/2/7 14/3/6 
s 32
f 3/4/3 2/1/2 15/2/13 16/3/14 
s 64
f 2/4/2 1/1/1 10/2/10 15/3/13 
s off
f 10/4/10 9/1/9 6/1/6 5/4/5 
f 9/1/9 16/2/14 7/2/7 6/1/6 
f 16/2/14 15/3/13 8/3/8 7/2/7 
f 15/3/13 10/4/10 5/4/5 8/3/8 
f 4/4/4 3/1/3 12/1/12 11/4/11 
f 3/1/3 16/2/14 13/2/7 12/1/12 
f 16/2/14 9/3/9 14/3/6 13/2/7 
f 9/3/9 4/4/4 11/4/11 14/3/6 
# 14 polygons

