# 3ds Max Wavefront OBJ Exporter v0.97b - (c)2007 guruware
# File Created: 12.11.2020 18:24:22

mtllib S_tetris_piece.mtl

#
# object Box002
#

v  0.0000 0.0000 1.0000
v  0.0000 0.0000 -0.0000
v  1.0000 0.0000 -0.0000
v  1.0000 0.0000 1.0000
v  0.0000 2.0000 1.0000
v  1.0000 2.0000 1.0000
v  1.0000 2.0000 -0.0000
v  0.0000 2.0000 -0.0000
v  1.0000 0.9998 1.0000
v  0.0000 0.9998 1.0000
v  1.0000 0.9998 -0.0000
v  0.0000 0.9998 -0.0000
v  -1.0000 0.0000 -0.0000
v  -1.0000 0.0000 1.0000
v  -1.0000 0.9998 1.0000
v  -1.0000 0.9998 0.0000
v  2.0000 0.9998 -0.0000
v  2.0000 2.0000 0.0000
v  2.0000 2.0000 1.0000
v  2.0000 0.9998 1.0000
# 20 vertices

vn -0.0000 -0.7071 0.7071
vn 0.0000 -0.7071 -0.7071
vn 0.5774 -0.5774 -0.5774
vn 0.5774 -0.5774 0.5774
vn -0.5774 0.5774 0.5774
vn 0.0000 0.7071 0.7071
vn 0.0000 0.7071 -0.7071
vn -0.5774 0.5774 -0.5774
vn 0.3015 -0.3015 0.9045
vn -0.3015 0.3015 0.9045
vn 0.3015 -0.3015 -0.9045
vn -0.3015 0.3015 -0.9045
vn -0.5774 -0.5774 -0.5774
vn -0.5774 -0.5774 0.5774
vn 0.5774 0.5774 -0.5774
vn 0.5774 0.5774 0.5774
# 16 vertex normals

vt 1.0000 0.0000 0.0000
vt 1.0000 1.0000 0.0000
vt 0.0000 1.0000 0.0000
vt 0.0000 0.0000 0.0000
vt 1.0000 0.4999 0.0000
vt 0.0000 0.4999 0.0000
# 6 texture coords

o Box002
g Box002
usemtl wire_177027088
s 2
f 1/1/1 2/2/2 3/3/3 4/4/4 
s 4
f 5/4/5 6/1/6 7/2/7 8/3/8 
s 8
f 1/4/1 4/1/4 9/5/9 10/6/10 
s 16
f 4/4/4 3/1/3 11/5/11 9/6/9 
s 32
f 3/4/3 2/1/2 12/5/12 11/6/11 
s 64
f 13/4/13 14/1/14 15/5/5 16/6/8 
s 8
f 9/5/9 6/2/6 5/3/5 10/6/10 
s 16
f 17/5/3 18/2/15 19/3/16 20/6/4 
s 32
f 12/5/12 8/2/8 7/3/7 11/6/11 
s 64
f 10/5/10 5/2/5 8/3/8 12/6/12 
s off
f 2/4/2 1/1/1 14/1/14 13/4/13 
f 1/1/1 10/5/10 15/5/5 14/1/14 
f 10/5/10 12/6/12 16/6/8 15/5/5 
f 12/6/12 2/4/2 13/4/13 16/6/8 
f 7/2/7 6/3/6 19/3/16 18/2/15 
f 6/3/6 9/6/9 20/6/4 19/3/16 
f 9/6/9 11/5/11 17/5/3 20/6/4 
f 11/5/11 7/2/7 18/2/15 17/5/3 
# 18 polygons

