# 3ds Max Wavefront OBJ Exporter v0.97b - (c)2007 guruware
# File Created: 12.11.2020 16:35:34

mtllib T_tetris_piece.mtl

#
# object Box002
#

v  0.0000 0.0000 -0.0000
v  0.0000 0.0000 -1.0000
v  1.0000 0.0000 -1.0000
v  1.0000 0.0000 -0.0000
v  0.0000 2.0000 -0.0000
v  1.0000 2.0000 -0.0000
v  1.0000 2.0000 -1.0000
v  0.0000 2.0000 -1.0000
v  1.0000 1.0000 -0.0000
v  0.0000 1.0000 -0.0000
v  1.0000 1.0000 -1.0000
v  0.0000 1.0000 -1.0000
v  2.0000 1.0000 -0.0000
v  2.0000 0.0000 -0.0000
v  2.0000 0.0000 -1.0000
v  2.0000 1.0000 -1.0000
v  -1.0000 1.0000 -1.0000
v  -1.0000 0.0000 -1.0000
v  -1.0000 0.0000 -0.0000
v  -1.0000 1.0000 -0.0000
# 20 vertices

vn 0.0000 -0.7071 0.7071
vn -0.0000 -0.7071 -0.7071
vn 0.0000 -0.7071 -0.7071
vn -0.5774 0.5774 0.5774
vn 0.5774 0.5774 0.5774
vn 0.5774 0.5774 -0.5774
vn -0.5774 0.5774 -0.5774
vn 0.3015 0.3015 0.9045
vn -0.3015 0.3015 0.9045
vn 0.3015 0.3015 -0.9045
vn -0.3015 0.3015 -0.9045
vn 0.5774 -0.5774 0.5774
vn 0.5774 -0.5774 -0.5774
vn -0.5774 -0.5774 -0.5774
vn -0.5774 -0.5774 0.5774
# 15 vertex normals

vt 1.0000 0.0000 0.0000
vt 1.0000 1.0000 0.0000
vt 0.0000 1.0000 0.0000
vt 0.0000 0.0000 0.0000
vt 1.0000 0.3921 0.0000
vt 0.0000 0.5017 0.0000
vt 1.0000 0.3809 0.0000
vt 0.0000 0.3921 0.0000
vt 1.0000 0.5000 0.0000
vt 0.0000 0.3809 0.0000
vt 1.0000 0.5017 0.0000
vt 0.0000 0.5000 0.0000
# 12 texture coords

o Box002
g Box002
usemtl wire_153228184
s 2
f 1/1/1 2/2/2 3/3/3 4/4/1 
s 4
f 5/4/4 6/1/5 7/2/6 8/3/7 
s 8
f 1/4/1 4/1/1 9/5/8 6/2/5 5/3/4 10/6/9 
s 16
f 11/7/10 7/2/6 6/3/5 9/8/8 
s 32
f 12/9/11 8/2/7 7/3/6 11/10/10 
s 64
f 10/11/9 5/2/4 8/3/7 12/12/11 
s 16
f 13/8/5 14/4/12 15/1/13 16/7/6 
s 32
f 11/10/10 3/4/3 2/1/2 12/9/11 
s 64
f 17/12/7 18/4/14 19/1/15 20/11/4 
s off
f 4/4/1 3/1/3 15/1/13 14/4/12 
f 3/1/3 11/7/10 16/7/6 15/1/13 
f 11/7/10 9/8/8 13/8/5 16/7/6 
f 9/8/8 4/4/1 14/4/12 13/8/5 
f 2/4/2 1/1/1 19/1/15 18/4/14 
f 1/1/1 10/11/9 20/11/4 19/1/15 
f 10/11/9 12/12/11 17/12/7 20/11/4 
f 12/12/11 2/4/2 18/4/14 17/12/7 
# 17 polygons

